Coordinates
version=1
nRows=18
nColumns=63
inDegrees=yes

Units are S.I. units (second, meters, Newtons, ...)
If the header above contains a line with 'inDegrees', this indicates whether rotational values are in degrees (yes) or radians (no).

endheader
time	pelvis_tilt	pelvis_list	pelvis_rotation	pelvis_tx	pelvis_ty	pelvis_tz	hip_flexion_r	hip_adduction_r	hip_rotation_r	knee_angle_r	knee_angle_r_beta	ankle_angle_r	subtalar_angle_r	mtp_angle_r	hip_flexion_l	hip_adduction_l	hip_rotation_l	knee_angle_l	knee_angle_l_beta	ankle_angle_l	subtalar_angle_l	mtp_angle_l	L5_S1_Flex_Ext	L5_S1_Lat_Bending	L5_S1_axial_rotation	L4_L5_Flex_Ext	L4_L5_Lat_Bending	L4_L5_axial_rotation	L3_L4_Flex_Ext	L3_L4_Lat_Bending	L3_L4_axial_rotation	L2_L3_Flex_Ext	L2_L3_Lat_Bending	L2_L3_axial_rotation	L1_L2_Flex_Ext	L1_L2_Lat_Bending	L1_L2_axial_rotation	L1_T12_Flex_Ext	L1_T12_Lat_Bending	L1_T12_axial_rotation	Abs_r3	Abs_r2	Abs_r1	Abs_t1	Abs_t2	neck_flexion	neck_bending	neck_rotation	arm_flex_r	arm_add_r	arm_rot_r	elbow_flex_r	pro_sup_r	wrist_flex_r	wrist_dev_r	arm_flex_l	arm_add_l	arm_rot_l	elbow_flex_l	pro_sup_l	wrist_flex_l	wrist_dev_l
1.950000	0.270199	-5.310048	92.986460	0.191915	0.725969	0.796361	5.212815	-1.797359	-2.076364	6.524303	0.113871	25.938451	11.698569	0.000000	5.738545	-0.092809	1.099862	8.486116	0.148111	22.720774	-2.844275	0.000000	0.206901	-0.197948	-0.280787	0.384235	-0.263271	-0.298337	0.339917	-0.481292	-0.298337	0.236467	-0.481292	-0.245689	0.192128	-0.403657	-0.228140	0.118223	-0.306622	-0.210591	1.477871	-2.239233	-1.561655	0.000000	0.000000	27.658557	12.938069	7.138480	16.084804	-7.070936	56.526590	40.743357	78.315193	9.568557	-2.192486	14.523396	-10.162986	53.523459	49.851882	75.145562	6.619970	4.324048
1.966667	0.271714	-5.267552	93.034443	0.191434	0.725990	0.796457	5.158892	-1.830714	-2.251585	6.496701	0.113389	25.976976	11.891924	0.000000	5.736845	-0.049690	1.271735	8.648791	0.150950	22.575434	-3.272940	0.000000	0.199046	-0.200851	-0.278776	0.369648	-0.267132	-0.296199	0.327012	-0.488349	-0.296199	0.227490	-0.488349	-0.243929	0.184834	-0.409575	-0.226505	0.113735	-0.311118	-0.209082	1.421765	-2.272065	-1.550468	0.000000	0.000000	27.616494	12.801743	6.859063	16.093346	-7.064488	56.140274	40.692752	80.198990	9.654836	-2.681874	14.665213	-10.129702	53.873888	49.724162	74.829825	6.487157	4.262740
1.983333	0.258099	-5.212014	93.060127	0.190954	0.726042	0.796388	5.071085	-1.875534	-2.342150	6.444085	0.112470	26.003882	12.014395	0.000000	5.695717	0.012025	1.466980	8.768684	0.153042	22.401656	-3.739218	0.000000	0.195489	-0.203977	-0.280597	0.363043	-0.271289	-0.298134	0.321169	-0.495949	-0.298134	0.223424	-0.495949	-0.245522	0.181531	-0.415950	-0.227985	0.111702	-0.315960	-0.210448	1.396359	-2.307427	-1.560596	0.000000	0.000000	27.588437	12.708600	6.636792	16.095792	-7.043104	55.868373	40.617949	81.756678	9.742565	-3.097134	14.765642	-10.108924	54.198015	49.603480	74.587204	6.328946	4.154401
2.000000	0.225362	-5.145454	93.078375	0.190460	0.726121	0.796162	4.952003	-1.937429	-2.377844	6.374111	0.111249	26.019536	12.080728	0.000000	5.616730	0.099892	1.743445	8.833450	0.154173	22.198688	-4.296753	0.000000	0.195689	-0.207875	-0.288196	0.363413	-0.276474	-0.306209	0.321497	-0.505428	-0.306209	0.223652	-0.505428	-0.252172	0.181716	-0.423900	-0.234160	0.111816	-0.321999	-0.216147	1.397784	-2.351528	-1.602862	0.000000	0.000000	27.575192	12.666679	6.463007	16.103310	-7.004131	55.742066	40.510298	82.949756	9.824755	-3.423565	14.798168	-10.090556	54.386734	49.511261	74.512224	6.239706	4.108783
2.016667	0.175289	-5.069606	93.125448	0.189929	0.726230	0.795802	4.799064	-2.015348	-2.376494	6.286492	0.109720	26.024646	12.061864	0.000000	5.512986	0.209764	2.121711	8.850926	0.154478	21.997899	-4.899763	0.000000	0.198427	-0.212867	-0.305401	0.368498	-0.283113	-0.324488	0.325995	-0.517564	-0.324488	0.226782	-0.517564	-0.267226	0.184259	-0.434078	-0.248138	0.113381	-0.329731	-0.229051	1.417341	-2.407991	-1.698547	0.000000	0.000000	27.574739	12.670003	6.319348	16.103576	-6.943498	55.716580	40.366968	83.759707	9.918738	-3.645059	14.771286	-10.067979	54.432390	49.441808	74.639522	6.251599	4.154073
2.033333	0.105214	-4.986168	93.184690	0.189407	0.726372	0.795331	4.621458	-2.109192	-2.327388	6.189564	0.108028	26.020161	11.960841	0.000000	5.380337	0.338819	2.543734	8.805127	0.153678	21.823735	-5.468122	0.000000	0.202584	-0.219717	-0.326571	0.376219	-0.292224	-0.346981	0.332826	-0.534221	-0.346981	0.231534	-0.534221	-0.285749	0.188120	-0.448048	-0.265339	0.115757	-0.340342	-0.244928	1.447039	-2.485487	-1.816288	0.000000	0.000000	27.583582	12.704565	6.166235	16.100602	-6.864171	55.805001	40.187500	84.074929	10.025072	-3.732316	14.705495	-10.049180	54.406849	49.390095	74.922710	6.269526	4.234516
2.050000	0.026196	-4.898626	93.273188	0.188897	0.726538	0.794773	4.409202	-2.200476	-2.142909	6.053837	0.105659	25.985010	11.649068	0.000000	5.240773	0.464096	2.877350	8.727529	0.152324	21.739952	-5.778914	0.000000	0.207075	-0.227170	-0.354823	0.384560	-0.302136	-0.376999	0.340204	-0.552341	-0.376999	0.236666	-0.552341	-0.310470	0.192290	-0.463245	-0.288293	0.118323	-0.351887	-0.266117	1.479118	-2.569794	-1.973418	0.000000	0.000000	27.595607	12.836065	6.106000	16.093150	-6.786139	56.039416	40.022211	83.553261	10.088469	-3.572871	14.638985	-10.058130	54.464171	49.361825	74.819433	6.218782	4.387378
2.066667	-0.062205	-4.806983	93.392877	0.188365	0.726730	0.794148	4.189457	-2.309354	-2.105435	5.934255	0.103572	25.997281	11.492363	0.000000	5.083000	0.604737	3.339938	8.594598	0.150004	21.673208	-6.147884	0.000000	0.210654	-0.235472	-0.390217	0.391206	-0.313177	-0.414606	0.346084	-0.572526	-0.414606	0.240757	-0.572526	-0.341440	0.195614	-0.480174	-0.317052	0.120368	-0.364746	-0.292663	1.504684	-2.663703	-2.170273	0.000000	0.000000	27.609713	12.970602	6.039621	16.059844	-6.693231	56.237634	39.831961	83.111733	10.170591	-3.413457	14.499058	-10.046811	54.315065	49.339537	75.194766	6.218935	4.502852
2.083333	-0.154976	-4.715374	93.523881	0.187847	0.726935	0.793465	3.963897	-2.422397	-2.100379	5.816958	0.101525	26.030911	11.361325	0.000000	4.912701	0.745868	3.798332	8.421804	0.146988	21.650116	-6.426274	0.000000	0.213464	-0.244009	-0.427458	0.396425	-0.324532	-0.454174	0.350701	-0.593284	-0.454174	0.243968	-0.593284	-0.374026	0.198223	-0.497584	-0.347309	0.121974	-0.377970	-0.320593	1.524755	-2.760283	-2.377392	0.000000	0.000000	27.625198	13.095640	5.996864	15.993880	-6.596572	56.389066	39.645291	82.563455	10.267398	-3.179762	14.326564	-10.037360	54.121753	49.331984	75.669880	6.156182	4.589065
2.100000	-0.250157	-4.625215	93.671425	0.187336	0.727149	0.792735	3.736530	-2.541317	-2.167664	5.706910	0.099604	26.091992	11.304121	0.000000	4.738374	0.878573	4.117852	8.231340	0.143664	21.689156	-6.444377	0.000000	0.215554	-0.253109	-0.464848	0.400305	-0.336635	-0.493901	0.354134	-0.615410	-0.493901	0.246357	-0.615410	-0.406742	0.200163	-0.516140	-0.377689	0.123168	-0.392066	-0.348636	1.539680	-2.863221	-2.585347	0.000000	0.000000	27.645445	13.167736	5.934026	15.873110	-6.496978	56.413618	39.479104	81.986947	10.398103	-2.881825	14.154598	-10.039264	53.990944	49.331589	76.142055	5.954317	4.609466
2.116667	-0.340291	-4.532980	93.824083	0.186833	0.727361	0.791956	3.497350	-2.653916	-2.249987	5.590383	0.097571	26.152775	11.255332	0.000000	4.555276	0.996808	4.325755	8.034350	0.140226	21.770454	-6.282856	0.000000	0.216746	-0.261496	-0.504770	0.402519	-0.347790	-0.536318	0.356092	-0.635801	-0.536318	0.247719	-0.635801	-0.441673	0.201270	-0.533243	-0.410125	0.123849	-0.405057	-0.378577	1.548196	-2.958094	-2.807377	0.000000	0.000000	27.667525	13.196959	5.922675	15.739010	-6.415876	56.471822	39.354915	81.163377	10.482472	-2.511552	13.958009	-10.051469	53.840607	49.355597	76.583996	5.706785	4.627943
2.133333	-0.424970	-4.438609	93.963282	0.186361	0.727573	0.791154	3.256131	-2.759424	-2.325921	5.478857	0.095624	26.200518	11.201640	0.000000	4.365888	1.097316	4.340336	7.843045	0.136887	21.885093	-5.886768	0.000000	0.217359	-0.269711	-0.539295	0.403658	-0.358716	-0.573001	0.357100	-0.655775	-0.573001	0.248420	-0.655775	-0.471883	0.201840	-0.549995	-0.438177	0.124199	-0.417782	-0.404471	1.552575	-3.051025	-2.999396	0.000000	0.000000	27.691751	13.139607	5.879894	15.586645	-6.357372	56.527341	39.272476	80.157259	10.538437	-2.104739	13.782346	-10.069521	53.769663	49.366819	77.039315	5.391504	4.568831
2.150000	-0.510430	-4.336844	94.077685	0.185919	0.727785	0.790305	3.006119	-2.862627	-2.365768	5.369396	0.093714	26.229693	11.114492	0.000000	4.155182	1.188745	4.161666	7.649759	0.133513	22.017697	-5.296841	0.000000	0.217614	-0.278151	-0.567200	0.404131	-0.369941	-0.602650	0.357518	-0.676297	-0.602650	0.248711	-0.676297	-0.496300	0.202076	-0.567206	-0.460850	0.124345	-0.430856	-0.425400	1.554395	-3.146502	-3.154598	0.000000	0.000000	27.715129	12.997363	5.822420	15.425093	-6.333851	56.613976	39.248066	79.014451	10.569550	-1.685749	13.633771	-10.097003	53.794158	49.367171	77.491672	5.047484	4.439577
2.166667	-0.585531	-4.228472	94.172096	0.185509	0.728012	0.789438	2.745554	-2.947667	-2.323103	5.246906	0.091576	26.217282	10.935232	0.000000	3.937958	1.263604	3.854871	7.477290	0.130503	22.149664	-4.636974	0.000000	0.217951	-0.285921	-0.590913	0.404757	-0.380275	-0.627845	0.358072	-0.695189	-0.627845	0.249096	-0.695189	-0.517049	0.202389	-0.583051	-0.480117	0.124537	-0.442892	-0.443185	1.556803	-3.234399	-3.286483	0.000000	0.000000	27.733334	12.802150	5.737997	15.268983	-6.332876	56.762250	39.257113	77.665148	10.567160	-1.235563	13.533433	-10.131634	53.974410	49.339566	77.760544	4.648669	4.279252
2.183333	-0.656834	-4.110647	94.239070	0.185155	0.728269	0.788563	2.472644	-3.022460	-2.241656	5.105496	0.089108	26.177422	10.737000	0.000000	3.713442	1.314717	3.218822	7.330780	0.127946	22.323125	-3.632566	0.000000	0.217840	-0.293692	-0.609291	0.404550	-0.390610	-0.647371	0.357889	-0.714082	-0.647371	0.248969	-0.714082	-0.533129	0.202286	-0.598896	-0.495049	0.124474	-0.454928	-0.456968	1.556008	-3.322298	-3.388691	0.000000	0.000000	27.746790	12.593257	5.649096	15.120308	-6.354750	56.999254	39.307543	75.849327	10.565346	-0.650434	13.491520	-10.174860	54.326736	49.261863	77.823143	4.218015	4.046526
2.200000	-0.729797	-3.985956	94.267463	0.184863	0.728547	0.787703	2.206640	-3.090355	-2.107399	4.972380	0.086784	26.135000	10.513141	0.000000	3.483879	1.356266	2.394928	7.212683	0.125885	22.490797	-2.503490	0.000000	0.217215	-0.302119	-0.621176	0.403390	-0.401818	-0.659999	0.356862	-0.734571	-0.659999	0.248255	-0.734571	-0.543529	0.201706	-0.616080	-0.504705	0.124117	-0.467982	-0.465882	1.551544	-3.417627	-3.454793	0.000000	0.000000	27.755032	12.371066	5.520807	14.984493	-6.390840	57.256405	39.385589	74.095567	10.573892	-0.106494	13.505138	-10.226316	54.861137	49.132321	77.676381	3.708936	3.681840
2.216667	-0.801478	-3.855778	94.236304	0.184659	0.728844	0.786861	1.956046	-3.153655	-1.973938	4.854034	0.084719	26.106446	10.369253	0.000000	3.246645	1.384635	1.352397	7.117375	0.124222	22.660566	-1.232773	0.000000	0.216140	-0.310338	-0.624180	0.401394	-0.412749	-0.663191	0.355097	-0.754555	-0.663191	0.247027	-0.754555	-0.546157	0.200708	-0.632840	-0.507146	0.123503	-0.480713	-0.468135	1.543869	-3.510601	-3.471501	0.000000	0.000000	27.759801	12.166900	5.394596	14.867555	-6.443684	57.582055	39.492548	72.186644	10.562050	0.470366	13.544210	-10.275647	55.468735	48.954640	77.377602	3.205806	3.233688
2.233333	-0.864019	-3.723887	94.176784	0.184504	0.729148	0.786039	1.720374	-3.206024	-1.889280	4.749390	0.082892	26.099282	10.326267	0.000000	3.009198	1.400426	0.238021	7.047127	0.122996	22.808401	0.026628	0.000000	0.215308	-0.317498	-0.621933	0.399848	-0.422273	-0.660804	0.353729	-0.771965	-0.660804	0.246075	-0.771965	-0.544192	0.199935	-0.647443	-0.505321	0.123027	-0.491805	-0.466450	1.537921	-3.591604	-3.459006	0.000000	0.000000	27.766879	11.979821	5.255451	14.749048	-6.505831	57.899881	39.617056	70.246890	10.557643	1.072313	13.599104	-10.315636	56.110066	48.742355	76.975461	2.740048	2.763899
